<svg width="275" height="248" viewBox="0 0 275 248" fill="none" xmlns="http://www.w3.org/2000/svg">
<mask id="mask0_308_376" style="mask-type:luminance" maskUnits="userSpaceOnUse" x="42" y="40" width="18" height="50">
<path fill-rule="evenodd" clip-rule="evenodd" d="M44.1051 40.2695C35.6475 67.9145 58.7461 89.8496 58.7461 89.8496C63.1917 64.1996 50.7981 52.603 44.1051 40.2695Z" fill="white"/>
</mask>
<g mask="url(#mask0_308_376)">
<path d="M47.8434 34.8762L44.105 40.2695C44.105 40.2695 58.61 75.8822 58.746 89.8496C58.8821 103.817 66.621 62.7423 66.621 62.7423L63.9462 48.2832" fill="#FDD504"/>
<path d="M47.8434 34.8762L44.105 40.2695C44.105 40.2695 58.61 75.8822 58.746 89.8496C58.8821 103.817 66.621 62.7423 66.621 62.7423L63.9462 48.2832" stroke="black" stroke-width="1.5" stroke-linecap="round" stroke-linejoin="round"/>
</g>
<path fill-rule="evenodd" clip-rule="evenodd" d="M44.1051 40.2695C35.6475 67.9145 58.7461 89.8496 58.7461 89.8496C63.1917 64.1996 50.7981 52.603 44.1051 40.2695Z" stroke="black" stroke-width="1.5" stroke-linecap="round" stroke-linejoin="round"/>
<path d="M76.4094 60.5225C63.0825 92.4392 81.8265 106.139 81.8265 106.139C86.2718 80.4886 83.1023 72.856 76.4094 60.5225Z" fill="#FDD504"/>
<mask id="mask1_308_376" style="mask-type:luminance" maskUnits="userSpaceOnUse" x="71" y="60" width="13" height="47">
<path fill-rule="evenodd" clip-rule="evenodd" d="M76.4094 60.5225C63.0825 92.4392 81.8265 106.139 81.8265 106.139C86.2718 80.4886 83.1023 72.856 76.4094 60.5225Z" fill="white"/>
</mask>
<g mask="url(#mask1_308_376)">
<path d="M77.2811 52.621L76.4093 60.5225C76.4093 60.5225 74.3619 90.2983 81.8264 106.139C89.2908 121.979 89.1219 77.7845 89.1219 77.7845L84.272 59.4782" fill="#FDD504"/>
<path d="M77.2811 52.621L76.4093 60.5225C76.4093 60.5225 74.3619 90.2983 81.8264 106.139C89.2908 121.979 89.1219 77.7845 89.1219 77.7845L84.272 59.4782" stroke="black" stroke-width="1.5" stroke-linecap="round" stroke-linejoin="round"/>
</g>
<path fill-rule="evenodd" clip-rule="evenodd" d="M76.4094 60.5225C63.0825 92.4392 81.8265 106.139 81.8265 106.139C86.2718 80.4886 83.1023 72.856 76.4094 60.5225Z" stroke="black" stroke-width="1.5" stroke-linecap="round" stroke-linejoin="round"/>
<path d="M97.1875 74.5808C86.7193 107.226 97.4209 122.256 97.4209 122.256C111.497 100.596 103.88 86.9143 97.1875 74.5808Z" fill="#FDD504"/>
<mask id="mask2_308_376" style="mask-type:luminance" maskUnits="userSpaceOnUse" x="92" y="74" width="14" height="49">
<path fill-rule="evenodd" clip-rule="evenodd" d="M97.1875 74.5808C86.7193 107.226 97.4209 122.256 97.4209 122.256C111.497 100.596 103.88 86.9143 97.1875 74.5808Z" fill="white"/>
</mask>
<g mask="url(#mask2_308_376)">
<path d="M97.9317 69.0388L97.1874 74.5808C97.1874 74.5808 102.451 107.975 97.4208 122.256C92.3904 136.537 116.836 95.2034 116.836 95.2034L105.398 67.6784" fill="#FDD504"/>
<path d="M97.9317 69.0388L97.1874 74.5808C97.1874 74.5808 102.451 107.975 97.4208 122.256C92.3904 136.537 116.836 95.2034 116.836 95.2034L105.398 67.6784" stroke="black" stroke-width="1.5" stroke-linecap="round" stroke-linejoin="round"/>
</g>
<path fill-rule="evenodd" clip-rule="evenodd" d="M97.1875 74.5808C86.7193 107.226 97.4209 122.256 97.4209 122.256C111.497 100.596 103.88 86.9143 97.1875 74.5808Z" stroke="black" stroke-width="1.5" stroke-linecap="round" stroke-linejoin="round"/>
<path d="M128.074 97.6076C107.09 122.284 113.015 142.812 113.015 142.812C133.292 126.843 132.344 108.385 128.074 97.6076Z" fill="#FDD504"/>
<mask id="mask3_308_376" style="mask-type:luminance" maskUnits="userSpaceOnUse" x="112" y="97" width="19" height="46">
<path fill-rule="evenodd" clip-rule="evenodd" d="M128.074 97.6076C107.09 122.284 113.015 142.812 113.015 142.812C133.292 126.843 132.344 108.385 128.074 97.6076Z" fill="white"/>
</mask>
<g mask="url(#mask3_308_376)">
<path d="M128.095 84.5591L128.074 97.6076C128.074 97.6076 125.17 125.689 113.015 142.812C100.86 159.934 135.842 133.745 135.842 133.745L143.641 115.042L139.985 91.6742" fill="#FDD504"/>
<path d="M128.095 84.5591L128.074 97.6076C128.074 97.6076 125.17 125.689 113.015 142.812C100.86 159.934 135.842 133.745 135.842 133.745L143.641 115.042L139.985 91.6742" stroke="black" stroke-width="1.5" stroke-linecap="round" stroke-linejoin="round"/>
</g>
<path fill-rule="evenodd" clip-rule="evenodd" d="M128.074 97.6076C107.09 122.284 113.015 142.812 113.015 142.812C133.292 126.843 132.344 108.385 128.074 97.6076Z" stroke="black" stroke-width="1.5" stroke-linecap="round" stroke-linejoin="round"/>
<path d="M19.8267 113.238C48.4948 114.38 59.2686 90.2378 59.2686 90.2378C33.6484 94.4919 29.2135 102.839 19.8267 113.238Z" fill="#FDD504"/>
<mask id="mask4_308_376" style="mask-type:luminance" maskUnits="userSpaceOnUse" x="19" y="90" width="41" height="24">
<path fill-rule="evenodd" clip-rule="evenodd" d="M19.8267 113.238C48.4948 114.38 59.2686 90.2378 59.2686 90.2378C33.6484 94.4919 29.2135 102.839 19.8267 113.238Z" fill="white"/>
</mask>
<g mask="url(#mask4_308_376)">
<path d="M8.79297 131.945L19.8267 113.238C19.8267 113.238 48.0235 102.7 58.746 89.8496C69.4684 76.9989 65.4283 97.0691 65.4283 97.0691L37.3608 122.228L14.2969 128.664" fill="#FDD504"/>
<path d="M8.79297 131.945L19.8267 113.238C19.8267 113.238 48.0235 102.7 58.746 89.8496C69.4684 76.9989 65.4283 97.0691 65.4283 97.0691L37.3608 122.228L14.2969 128.664" stroke="black" stroke-width="1.5" stroke-linecap="round" stroke-linejoin="round"/>
</g>
<path fill-rule="evenodd" clip-rule="evenodd" d="M19.8267 113.238C48.4948 114.38 59.2686 90.2378 59.2686 90.2378C33.6484 94.4919 29.2135 102.839 19.8267 113.238Z" stroke="black" stroke-width="1.5" stroke-linecap="round" stroke-linejoin="round"/>
<path d="M40.8887 125.805C69.2646 130.08 82.6055 107.264 82.6055 107.264C56.6718 108.686 51.3536 116.497 40.8887 125.805Z" fill="#FDD504"/>
<mask id="mask5_308_376" style="mask-type:luminance" maskUnits="userSpaceOnUse" x="40" y="107" width="43" height="20">
<path fill-rule="evenodd" clip-rule="evenodd" d="M40.8887 125.805C69.2646 130.08 82.6055 107.264 82.6055 107.264C56.6718 108.686 51.3536 116.497 40.8887 125.805Z" fill="white"/>
</mask>
<g mask="url(#mask5_308_376)">
<path d="M35.0512 134.581L40.8885 125.805C40.8885 125.805 81.1993 112.056 83.2656 105.786L62.2899 104.337C62.2899 104.337 48.9742 110.629 47.5555 111.594C46.1368 112.559 34.6831 120.521 34.6831 120.521" fill="#FDD504"/>
<path d="M35.0512 134.581L40.8885 125.805C40.8885 125.805 81.1993 112.056 83.2656 105.786L62.2899 104.337C62.2899 104.337 48.9742 110.629 47.5555 111.594C46.1368 112.559 34.6831 120.521 34.6831 120.521" stroke="black" stroke-width="1.5" stroke-linecap="round" stroke-linejoin="round"/>
</g>
<path fill-rule="evenodd" clip-rule="evenodd" d="M40.8887 125.805C69.2646 130.08 82.6055 107.264 82.6055 107.264C56.6718 108.686 51.3536 116.497 40.8887 125.805Z" stroke="black" stroke-width="1.5" stroke-linecap="round" stroke-linejoin="round"/>
<path d="M59.3115 138.387C87.6875 142.662 98.0243 122.583 98.0243 122.583C72.0906 124.006 69.7764 129.079 59.3115 138.387Z" fill="#FDD504"/>
<mask id="mask6_308_376" style="mask-type:luminance" maskUnits="userSpaceOnUse" x="59" y="122" width="40" height="17">
<path fill-rule="evenodd" clip-rule="evenodd" d="M59.3115 138.387C87.6875 142.662 98.0243 122.583 98.0243 122.583C72.0906 124.006 69.7764 129.079 59.3115 138.387Z" fill="white"/>
</mask>
<g mask="url(#mask6_308_376)">
<path d="M51.8999 147.475L59.3117 138.387C59.3117 138.387 84.9017 132.671 98.0245 122.583C111.147 112.495 99.9283 127.388 99.9283 127.388L66.1513 149.1" fill="#FDD504"/>
<path d="M51.8999 147.475L59.3117 138.387C59.3117 138.387 84.9017 132.671 98.0245 122.583C111.147 112.495 99.9283 127.388 99.9283 127.388L66.1513 149.1" stroke="black" stroke-width="1.5" stroke-linecap="round" stroke-linejoin="round"/>
</g>
<path fill-rule="evenodd" clip-rule="evenodd" d="M59.3115 138.387C87.6875 142.662 98.0243 122.583 98.0243 122.583C72.0906 124.006 69.7764 129.079 59.3115 138.387Z" stroke="black" stroke-width="1.5" stroke-linecap="round" stroke-linejoin="round"/>
<path d="M74.083 150.592C101.389 159.449 115.531 144.44 115.531 144.44C97.3288 137.735 85.9245 143.122 74.083 150.592Z" fill="#FDD504"/>
<mask id="mask7_308_376" style="mask-type:luminance" maskUnits="userSpaceOnUse" x="74" y="141" width="42" height="13">
<path fill-rule="evenodd" clip-rule="evenodd" d="M74.083 150.592C101.389 159.449 115.531 144.44 115.531 144.44C97.3288 137.735 85.9245 143.122 74.083 150.592Z" fill="white"/>
</mask>
<g mask="url(#mask7_308_376)">
<path d="M62.6167 161.603L74.0837 150.592C74.0837 150.592 102.943 149.598 115.532 144.44C128.121 139.282 105.655 158.565 105.655 158.565L82.6463 163.155" fill="#FDD504"/>
<path d="M62.6167 161.603L74.0837 150.592C74.0837 150.592 102.943 149.598 115.532 144.44C128.121 139.282 105.655 158.565 105.655 158.565L82.6463 163.155" stroke="black" stroke-width="1.5" stroke-linecap="round" stroke-linejoin="round"/>
</g>
<path fill-rule="evenodd" clip-rule="evenodd" d="M74.083 150.592C101.389 159.449 115.531 144.44 115.531 144.44C97.3288 137.735 85.9245 143.122 74.083 150.592Z" stroke="black" stroke-width="1.5" stroke-linecap="round" stroke-linejoin="round"/>
<path d="M47.0019 85.4513C52.0236 86.8451 56.8775 88.7846 61.4769 91.2353L63.1979 92.1633C63.7721 92.4719 64.3503 92.7744 64.8987 93.1268L68.2361 95.168C70.3961 96.6266 72.5787 98.0619 74.64 99.6621C78.805 102.809 82.7804 106.198 86.5454 109.814C90.3221 113.414 93.9633 117.161 97.4142 121.075C104.392 128.844 110.803 137.104 116.596 145.792C119.469 150.148 122.228 154.578 124.799 159.115C126.091 161.38 127.339 163.67 128.566 165.969C129.752 168.291 130.947 170.606 132.014 172.989C132.014 172.989 130.358 176.7 128.871 172.66C125.375 163.507 120.697 154.85 114.957 146.909C109.025 138.414 102.96 129.998 96.2216 122.122C92.8706 118.171 89.3294 114.386 85.6511 110.744C81.9859 107.087 78.1077 103.65 74.0367 100.451C72.0324 98.8106 69.9068 97.3349 67.7997 95.8317L64.5413 93.7232C64.0053 93.359 63.44 93.0449 62.8782 92.7243L61.194 91.76C56.6834 89.2073 51.9069 87.1562 46.9497 85.6434L47.0019 85.4513Z" fill="#FDD504" stroke="black" stroke-width="1.5" stroke-linecap="round" stroke-linejoin="round"/>
<path d="M47.3713 85.7848C40.0256 71.2976 24.9532 62.3769 8.71875 62.908C27.8312 87.0457 35.9427 87.5287 47.3713 85.7848Z" fill="#FDD504"/>
<mask id="mask8_308_376" style="mask-type:luminance" maskUnits="userSpaceOnUse" x="8" y="62" width="40" height="25">
<path fill-rule="evenodd" clip-rule="evenodd" d="M47.3713 85.7848C40.0256 71.2976 24.9532 62.3769 8.71875 62.908C27.8312 87.0457 35.9427 87.5287 47.3713 85.7848Z" fill="white"/>
</mask>
<g mask="url(#mask8_308_376)">
<path d="M-14.1587 71.9948L8.71886 62.908C8.71886 62.908 31.8021 79.2026 47.3715 85.7848C62.9409 92.3669 18.6391 97.1972 18.6391 97.1972L1.46216 83.1374" fill="#FDD504"/>
<path d="M-14.1587 71.9948L8.71886 62.908C8.71886 62.908 31.8021 79.2026 47.3715 85.7848C62.9409 92.3669 18.6391 97.1972 18.6391 97.1972L1.46216 83.1374" stroke="black" stroke-width="1.5" stroke-linecap="round" stroke-linejoin="round"/>
</g>
<path fill-rule="evenodd" clip-rule="evenodd" d="M47.3713 85.7848C40.0256 71.2976 24.9532 62.3769 8.71875 62.908C27.8312 87.0457 35.9427 87.5287 47.3713 85.7848Z" stroke="black" stroke-width="1.5" stroke-linecap="round" stroke-linejoin="round"/>
<path d="M32.6331 75.0503L33.1159 76.2693Z" fill="#FDD504"/>
<path d="M32.6331 75.0503L33.1159 76.2693" stroke="black" stroke-width="1.5" stroke-linecap="round" stroke-linejoin="round"/>
<path d="M78.3764 84.4151L78.4664 85.7944Z" fill="#FDD504"/>
<path d="M78.3764 84.4151L78.4664 85.7944" stroke="black" stroke-width="1.5" stroke-linecap="round" stroke-linejoin="round"/>
<path d="M61.8774 118.68L66.5084 117.363Z" fill="#FDD504"/>
<path d="M61.8774 118.68L66.5084 117.363" stroke="black" stroke-width="1.5" stroke-linecap="round" stroke-linejoin="round"/>
<path d="M36.5766 103.347L37.7916 102.865Z" fill="#FDD504"/>
<path d="M36.5766 103.347L37.7916 102.865" stroke="black" stroke-width="1.5" stroke-linecap="round" stroke-linejoin="round"/>
<path d="M100.052 100.239L100.213 100.645Z" fill="#FDD504"/>
<path d="M100.052 100.239L100.213 100.645" stroke="black" stroke-width="1.5" stroke-linecap="round" stroke-linejoin="round"/>
<path d="M77.6389 131.245L78.4489 130.923Z" fill="#FDD504"/>
<path d="M77.6389 131.245L78.4489 130.923" stroke="black" stroke-width="1.5" stroke-linecap="round" stroke-linejoin="round"/>
<path d="M94.5942 148.057L97.671 148.707Z" fill="#FDD504"/>
<path d="M94.5942 148.057L97.671 148.707" stroke="black" stroke-width="1.5" stroke-linecap="round" stroke-linejoin="round"/>
<path d="M122.593 120.444L122.349 121.011Z" fill="#FDD504"/>
<path d="M122.593 120.444L122.349 121.011" stroke="black" stroke-width="1.5" stroke-linecap="round" stroke-linejoin="round"/>
<path d="M256.222 29.2373C250.762 28.1762 221.264 39.6185 219.34 46.8337C219.759 46.7363 259.312 30.6982 256.222 29.2373Z" fill="#FDD504" stroke="black" stroke-width="1.5" stroke-linecap="round" stroke-linejoin="round"/>
<path d="M253.075 41.075C252.55 38.5271 216.872 53.1626 209.254 59.6351C208.823 59.9866 208.431 60.3824 208.083 60.8159C203.797 66.4688 205.156 65.7688 205.156 65.7688C205.156 65.7688 253.475 43.0163 253.075 41.075Z" fill="#FDD504" stroke="black" stroke-width="1.5" stroke-linecap="round" stroke-linejoin="round"/>
<path d="M245.497 57.2102C246.663 54.8866 205.042 70.8673 197.424 77.3402C196.993 77.6918 196.6 78.0877 196.252 78.5213C191.966 84.1741 194.508 80.9074 194.508 80.9074C194.508 80.9074 243.757 60.673 245.497 57.2102Z" fill="#FDD504" stroke="black" stroke-width="1.5" stroke-linecap="round" stroke-linejoin="round"/>
<path d="M242.995 76.097C244.161 73.7733 189.166 85.7513 187.057 90.497C186.785 91.1066 186.153 91.3245 185.885 91.6778C181.6 97.3307 184.141 94.0638 184.141 94.0638C184.141 94.0638 241.256 79.5596 242.995 76.097Z" fill="#FDD504" stroke="black" stroke-width="1.5" stroke-linecap="round" stroke-linejoin="round"/>
<path d="M235.061 91.6934C233.841 89.3975 177.564 99.357 175.454 104.103C175.183 104.713 174.55 104.931 174.282 105.284C169.997 110.937 172.539 107.67 172.539 107.67C172.539 107.67 236.825 95.012 235.061 91.6934Z" fill="#FDD504" stroke="black" stroke-width="1.5" stroke-linecap="round" stroke-linejoin="round"/>
<path d="M223.623 107.261C222.402 104.965 166.125 114.925 164.015 119.671C163.744 120.281 163.112 120.499 162.844 120.852C158.559 126.505 161.1 123.238 161.1 123.238C161.1 123.238 225.386 110.58 223.623 107.261Z" fill="#FDD504" stroke="black" stroke-width="1.5" stroke-linecap="round" stroke-linejoin="round"/>
<path d="M214.604 126.191C213.384 123.895 164.262 125.359 152.514 133.756C152.065 134.086 151.67 134.485 151.343 134.937C147.058 140.59 150.755 135.713 150.755 135.713C150.755 135.713 216.367 129.509 214.604 126.191Z" fill="#FDD504" stroke="black" stroke-width="1.5" stroke-linecap="round" stroke-linejoin="round"/>
<path d="M224.692 1.06656C227.282 0.924357 222.289 39.2617 217.996 48.3016C217.768 48.8089 217.487 49.2908 217.158 49.7395C212.803 55.339 213.131 53.8427 213.131 53.8427C213.131 53.8427 222.719 1.17486 224.692 1.06656Z" fill="#FDD504" stroke="black" stroke-width="1.5" stroke-linecap="round" stroke-linejoin="round"/>
<path d="M213.071 13.3887C215.013 11.6637 210.242 56.1074 205.95 65.148C205.721 65.6553 205.44 66.1372 205.111 66.5858C200.756 72.1854 203.256 68.886 203.256 68.886C203.256 68.886 210.178 15.9593 213.071 13.3887Z" fill="#FDD504" stroke="black" stroke-width="1.5" stroke-linecap="round" stroke-linejoin="round"/>
<path d="M193.079 22.8294C195.021 21.1044 197.525 77.4936 193.489 80.7521C192.97 81.1706 192.922 81.8399 192.65 82.1898C188.296 87.7895 190.795 84.4901 190.795 84.4901C190.795 84.4901 190.185 25.4001 193.079 22.8294Z" fill="#FDD504" stroke="black" stroke-width="1.5" stroke-linecap="round" stroke-linejoin="round"/>
<path d="M180.138 33.8468C182.663 34.4434 187.44 91.5601 183.404 94.8185C182.886 95.2372 182.837 95.9063 182.565 96.2563C178.211 101.856 180.711 98.5567 180.711 98.5567C180.711 98.5567 176.489 32.9843 180.138 33.8468Z" fill="#FDD504" stroke="black" stroke-width="1.5" stroke-linecap="round" stroke-linejoin="round"/>
<path d="M168.127 48.4082C170.652 49.0049 175.429 106.122 171.393 109.38C170.875 109.799 170.827 110.468 170.555 110.818C166.2 116.417 168.7 113.118 168.7 113.118C168.7 113.118 164.478 47.5463 168.127 48.4082Z" fill="#FDD504" stroke="black" stroke-width="1.5" stroke-linecap="round" stroke-linejoin="round"/>
<path d="M151.486 60.6276C154.011 61.2242 165.15 109.231 160.057 122.768C159.854 123.288 159.571 123.773 159.218 124.206C154.864 129.806 158.62 124.974 158.62 124.974C158.62 124.974 147.837 59.7651 151.486 60.6276Z" fill="#FDD504" stroke="black" stroke-width="1.5" stroke-linecap="round" stroke-linejoin="round"/>
<path d="M140.969 74.2262C143.494 74.8229 154.632 122.83 149.54 136.367C149.336 136.887 149.053 137.372 148.701 137.805C144.347 143.404 148.103 138.573 148.103 138.573C148.103 138.573 137.319 73.3638 140.969 74.2262Z" fill="#FDD504" stroke="black" stroke-width="1.5" stroke-linecap="round" stroke-linejoin="round"/>
<path d="M136.717 148.7C167.905 116.585 221.849 42.3032 222.391 41.5565L224.185 42.8654C223.643 43.6135 169.605 118.024 138.306 150.253L136.717 148.7Z" fill="#FDD504" stroke="black" stroke-width="1.5" stroke-linecap="round" stroke-linejoin="round"/>
<path d="M241.843 8.79273C242.068 14.3672 227.202 45.08 219.801 45.9027C219.96 45.5024 240.868 5.50908 241.843 8.79273Z" fill="#FDD504" stroke="black" stroke-width="1.5" stroke-linecap="round" stroke-linejoin="round"/>
<path d="M145.805 103.561L145.403 105.92Z" fill="#FDD504"/>
<path d="M145.805 103.561L145.403 105.92" stroke="black" stroke-width="1.5" stroke-linecap="round" stroke-linejoin="round"/>
<path d="M201.353 111.506L198.382 113.038Z" fill="#FDD504"/>
<path d="M201.353 111.506L198.382 113.038" stroke="black" stroke-width="1.5" stroke-linecap="round" stroke-linejoin="round"/>
<path d="M168.836 65.8343L168.048 72.6927Z" fill="#FDD504"/>
<path d="M168.836 65.8343L168.048 72.6927" stroke="black" stroke-width="1.5" stroke-linecap="round" stroke-linejoin="round"/>
<path d="M218.318 81.7763L217.045 82.4326Z" fill="#FDD504"/>
<path d="M218.318 81.7763L217.045 82.4326" stroke="black" stroke-width="1.5" stroke-linecap="round" stroke-linejoin="round"/>
<path d="M194.069 47.9998L194.262 50.8849Z" fill="#FDD504"/>
<path d="M194.069 47.9998L194.262 50.8849" stroke="black" stroke-width="1.5" stroke-linecap="round" stroke-linejoin="round"/>
<path d="M233.447 50.0305C232.348 50.6878 231.17 51.2043 229.942 51.5677Z" fill="#FDD504"/>
<path d="M233.447 50.0305C232.348 50.6878 231.17 51.2043 229.942 51.5677" stroke="black" stroke-width="1.5" stroke-linecap="round" stroke-linejoin="round"/>
<path d="M220.717 27.7976L220.631 29.7254Z" fill="#FDD504"/>
<path d="M220.717 27.7976L220.631 29.7254" stroke="black" stroke-width="1.5" stroke-linecap="round" stroke-linejoin="round"/>
<path d="M243.716 33.4197L242.356 34.4211Z" fill="#FDD504"/>
<path d="M243.716 33.4197L242.356 34.4211" stroke="black" stroke-width="1.5" stroke-linecap="round" stroke-linejoin="round"/>
<path d="M78.0253 60.0263C77.8715 55.7665 76.8209 51.587 74.9421 47.7608C68.6445 34.9957 54.2873 28.3622 40.4847 31.8404C26.6822 35.3187 17.1832 47.9639 17.6871 62.189C17.8412 66.4488 18.8918 70.6282 20.7703 74.4545C40.5838 73.2297 59.9977 68.3374 78.0253 60.0263V60.0263Z" fill="#1B80FD"/>
<mask id="mask9_308_376" style="mask-type:luminance" maskUnits="userSpaceOnUse" x="17" y="30" width="62" height="45">
<path fill-rule="evenodd" clip-rule="evenodd" d="M78.0253 60.0263C77.8715 55.7665 76.8209 51.587 74.9421 47.7608C68.6445 34.9957 54.2873 28.3622 40.4847 31.8404C26.6822 35.3187 17.1832 47.9639 17.6871 62.189C17.8412 66.4488 18.8918 70.6282 20.7703 74.4545C40.5838 73.2297 59.9977 68.3374 78.0253 60.0263V60.0263Z" fill="white"/>
</mask>
<g mask="url(#mask9_308_376)">
<path d="M28.425 26.8142C92.6738 30.6231 79.4826 65.9061 33.6699 73.2242C-12.1428 80.5422 94.2164 68.3942 94.2164 68.3942L92.4797 33.3741L43.7597 23.9003L30.7547 30.4781" fill="#1D62FC"/>
</g>
<path fill-rule="evenodd" clip-rule="evenodd" d="M78.0253 60.0263C77.8715 55.7665 76.8209 51.587 74.9421 47.7608C68.6445 34.9957 54.2873 28.3622 40.4847 31.8404C26.6822 35.3187 17.1832 47.9639 17.6871 62.189C17.8412 66.4488 18.8918 70.6282 20.7703 74.4545C40.5838 73.2297 59.9977 68.3374 78.0253 60.0263V60.0263Z" stroke="black" stroke-width="1.5" stroke-linecap="round" stroke-linejoin="round"/>
<path d="M23.252 78.6175C30.4579 88.7722 43.1611 93.4581 55.2353 90.4154C67.3095 87.3728 76.275 77.2263 77.808 64.8694C60.5181 72.4669 42.0775 77.1139 23.252 78.6175H23.252Z" fill="#1B80FD"/>
<path fill-rule="evenodd" clip-rule="evenodd" d="M23.252 78.6175C30.4579 88.7722 43.1611 93.4581 55.2353 90.4154C67.3095 87.3728 76.275 77.2263 77.808 64.8694C60.5181 72.4669 42.0775 77.1139 23.252 78.6175H23.252Z" stroke="black" stroke-width="1.5" stroke-linecap="round" stroke-linejoin="round"/>
<path d="M94.0622 49.4634C93.0422 45.4051 87.3448 43.3762 77.1286 43.4353C75.6403 43.4439 74.0773 43.5013 72.4606 43.5973C73.3986 44.9159 74.2285 46.3082 74.9419 47.7606C84.2473 47.4606 89.5178 48.8379 89.9365 50.5032C90.3551 52.1685 86.3633 55.8792 78.0251 60.0261C59.9974 68.3372 40.5835 73.2295 20.7701 74.4543C11.4649 74.7543 6.19446 73.3768 5.77551 71.7118C5.35656 70.0468 9.34866 66.3357 17.6869 62.1888C17.6288 60.5712 17.7015 58.9516 17.9044 57.3457C16.4344 58.0272 15.031 58.7175 13.7162 59.4157C4.68906 64.206 0.629608 68.6932 1.64991 72.7516C2.67021 76.81 8.36751 78.8386 18.5837 78.7795C20.072 78.7711 21.635 78.7138 23.2514 78.6175C42.077 77.114 60.5176 72.4669 77.8075 64.8694C79.2767 64.1878 80.6806 63.4975 81.9956 62.7994C91.0229 58.009 95.0824 53.5216 94.0622 49.4634Z" fill="#FACCC4"/>
<mask id="mask10_308_376" style="mask-type:luminance" maskUnits="userSpaceOnUse" x="1" y="43" width="94" height="36">
<path fill-rule="evenodd" clip-rule="evenodd" d="M94.0622 49.4634C93.0422 45.4051 87.3448 43.3762 77.1286 43.4353C75.6403 43.4439 74.0773 43.5013 72.4606 43.5973C73.3986 44.9159 74.2285 46.3082 74.9419 47.7606C84.2473 47.4606 89.5178 48.8379 89.9365 50.5032C90.3551 52.1685 86.3633 55.8792 78.0251 60.0261C59.9974 68.3372 40.5835 73.2295 20.7701 74.4543C11.4649 74.7543 6.19446 73.3768 5.77551 71.7118C5.35656 70.0468 9.34866 66.3357 17.6869 62.1888C17.6288 60.5712 17.7015 58.9516 17.9044 57.3457C16.4344 58.0272 15.031 58.7175 13.7162 59.4157C4.68906 64.206 0.629608 68.6932 1.64991 72.7516C2.67021 76.81 8.36751 78.8386 18.5837 78.7795C20.072 78.7711 21.635 78.7138 23.2514 78.6175C42.077 77.114 60.5176 72.4669 77.8075 64.8694C79.2767 64.1878 80.6806 63.4975 81.9956 62.7994C91.0229 58.009 95.0824 53.5216 94.0622 49.4634Z" fill="white"/>
</mask>
<g mask="url(#mask10_308_376)">
<path d="M-5.34961 61.1074C22.9897 56.6374 20.2723 69.3824 20.2723 69.3824L27.2601 53.5544L16.002 51.2191" fill="#ED707B"/>
<path d="M64.7224 39.1531C78.892 41.0896 80.445 51.2191 80.445 51.2191L68.4105 53.5544L64.5283 49.8344" fill="#ED707B"/>
</g>
<path fill-rule="evenodd" clip-rule="evenodd" d="M94.0622 49.4634C93.0422 45.4051 87.3448 43.3762 77.1286 43.4353C75.6403 43.4439 74.0773 43.5013 72.4606 43.5973C73.3986 44.9159 74.2285 46.3082 74.9419 47.7606C84.2473 47.4606 89.5178 48.8379 89.9365 50.5032C90.3551 52.1685 86.3633 55.8792 78.0251 60.0261C59.9974 68.3372 40.5835 73.2295 20.7701 74.4543C11.4649 74.7543 6.19446 73.3768 5.77551 71.7118C5.35656 70.0468 9.34866 66.3357 17.6869 62.1888C17.6288 60.5712 17.7015 58.9516 17.9044 57.3457C16.4344 58.0272 15.031 58.7175 13.7162 59.4157C4.68906 64.206 0.629608 68.6932 1.64991 72.7516C2.67021 76.81 8.36751 78.8386 18.5837 78.7795C20.072 78.7711 21.635 78.7138 23.2514 78.6175C42.077 77.114 60.5176 72.4669 77.8075 64.8694C79.2767 64.1878 80.6806 63.4975 81.9956 62.7994C91.0229 58.009 95.0824 53.5216 94.0622 49.4634Z" stroke="black" stroke-width="1.5" stroke-linecap="round" stroke-linejoin="round"/>
<path d="M44.2894 45.5562C44.0536 47.2853 43.4306 48.939 42.4668 50.394" stroke="black" stroke-width="1.5" stroke-linecap="round" stroke-linejoin="round"/>
<path d="M61.912 77.8313L58.5791 80.115" stroke="black" stroke-width="1.5" stroke-linecap="round" stroke-linejoin="round"/>
<rect x="10.6191" y="207.419" width="169.377" height="31.1103" fill="#FDD504"/>
<mask id="mask11_308_376" style="mask-type:luminance" maskUnits="userSpaceOnUse" x="10" y="207" width="170" height="32">
<rect x="10.6191" y="207.419" width="169.377" height="31.1103" fill="white"/>
</mask>
<g mask="url(#mask11_308_376)">
<rect x="31.8389" y="202.107" width="21.5984" height="40.5951" fill="#E43334" stroke="black" stroke-width="1.5" stroke-linecap="round" stroke-linejoin="round"/>
<path d="M74.8188 205.916C67.6338 212.392 194.774 218.876 197.047 233.197C199.321 247.517 188.889 195.515 188.889 195.515L172.322 196.778" fill="#FCB006"/>
</g>
<rect x="10.6191" y="207.419" width="169.377" height="31.1103" stroke="black" stroke-width="1.5" stroke-linecap="round" stroke-linejoin="round"/>
<rect x="223.956" y="165.938" width="169.377" height="31.1103" transform="rotate(-180 223.956 165.938)" fill="#E43334"/>
<mask id="mask12_308_376" style="mask-type:luminance" maskUnits="userSpaceOnUse" x="54" y="134" width="170" height="32">
<rect x="223.956" y="165.938" width="169.377" height="31.1103" transform="rotate(-180 223.956 165.938)" fill="white"/>
</mask>
<g mask="url(#mask12_308_376)">
<rect x="202.736" y="170.111" width="21.5984" height="40.5951" transform="rotate(-180 202.736 170.111)" fill="white" stroke="black" stroke-width="1.5" stroke-linecap="round" stroke-linejoin="round"/>
<rect x="175.585" y="170.111" width="4.04175" height="40.5951" transform="rotate(-180 175.585 170.111)" fill="white" stroke="black" stroke-width="1.5" stroke-linecap="round" stroke-linejoin="round"/>
<path d="M52.7305 159.278C47.173 164.083 161.607 164.083 159.081 166.107C156.554 168.13 57.2776 173.695 57.2776 173.695L48.1836 160.542" fill="#C11F27"/>
</g>
<rect x="223.956" y="165.938" width="169.377" height="31.1103" transform="rotate(-180 223.956 165.938)" stroke="black" stroke-width="1.5" stroke-linecap="round" stroke-linejoin="round"/>
<path d="M214.319 185.414H64.2158C70.0612 190.63 64.2158 205.616 64.2158 205.616H214.319C214.319 205.616 208.474 190.63 214.319 185.414Z" fill="white"/>
<mask id="mask13_308_376" style="mask-type:luminance" maskUnits="userSpaceOnUse" x="64" y="185" width="151" height="21">
<path fill-rule="evenodd" clip-rule="evenodd" d="M214.319 185.414H64.2158C70.0612 190.63 64.2158 205.616 64.2158 205.616H214.319C214.319 205.616 208.474 190.63 214.319 185.414Z" fill="white"/>
</mask>
<g mask="url(#mask13_308_376)">
<path d="M62.1399 193.234L65.1714 193.286L117.083 194.182L59.1084 195.515" fill="#D6DCF2"/>
<path d="M237.655 199.024L234.625 198.971L182.711 198.076L240.686 196.742" fill="#D6DCF2"/>
</g>
<path fill-rule="evenodd" clip-rule="evenodd" d="M214.319 185.414H64.2158C70.0612 190.63 64.2158 205.616 64.2158 205.616H214.319C214.319 205.616 208.474 190.63 214.319 185.414Z" stroke="black" stroke-width="1.5" stroke-linecap="round" stroke-linejoin="round"/>
<rect x="58.3682" y="181.62" width="161.798" height="5.69085" fill="#1AB995" stroke="black" stroke-width="1.5" stroke-linecap="round" stroke-linejoin="round"/>
<rect x="58.3682" y="201.728" width="161.798" height="5.69085" fill="#1AB995" stroke="black" stroke-width="1.5" stroke-linecap="round" stroke-linejoin="round"/>
<rect x="16.9346" y="173.779" width="180.113" height="9.61125" fill="#7A24EA"/>
<mask id="mask14_308_376" style="mask-type:luminance" maskUnits="userSpaceOnUse" x="16" y="173" width="182" height="11">
<rect x="16.9346" y="173.779" width="180.113" height="9.61125" fill="white"/>
</mask>
<g mask="url(#mask14_308_376)">
<path d="M106.991 172.177C82.0332 180.144 198.74 175.887 202.151 178.585C205.561 181.283 204.424 170.744 204.424 170.744L171.079 166.865" fill="#6B1AD3"/>
</g>
<rect x="16.9346" y="173.779" width="180.113" height="9.61125" stroke="black" stroke-width="1.5" stroke-linecap="round" stroke-linejoin="round"/>
<rect x="31.5859" y="165.938" width="180.113" height="9.61125" fill="#1A80FD" stroke="black" stroke-width="1.5" stroke-linecap="round" stroke-linejoin="round"/>
<path d="M114.579 225.584L118.303 228.546" stroke="black" stroke-width="1.5" stroke-linecap="round" stroke-linejoin="round"/>
<path d="M104.974 149.599L111.655 148.816" stroke="black" stroke-width="1.5" stroke-linecap="round" stroke-linejoin="round"/>
<rect x="230.332" y="133.773" width="199.659" height="36.6725" transform="rotate(-180 230.332 133.773)" fill="#E43334"/>
<mask id="mask15_308_376" style="mask-type:luminance" maskUnits="userSpaceOnUse" x="30" y="97" width="201" height="37">
<rect x="230.332" y="133.773" width="199.659" height="36.6725" transform="rotate(-180 230.332 133.773)" fill="white"/>
</mask>
<g mask="url(#mask15_308_376)">
<rect x="205.319" y="138.692" width="25.4599" height="47.853" transform="rotate(-180 205.319 138.692)" fill="white" stroke="black" stroke-width="1.5" stroke-linecap="round" stroke-linejoin="round"/>
<rect x="173.313" y="138.692" width="4.76445" height="47.853" transform="rotate(-180 173.313 138.692)" fill="white" stroke="black" stroke-width="1.5" stroke-linecap="round" stroke-linejoin="round"/>
<path d="M28.4937 125.921C21.9426 131.586 156.836 131.586 153.858 133.971C150.88 136.356 33.8538 142.916 33.8538 142.916L23.1338 127.412" fill="#C11F27"/>
<path d="M102.365 100.592C91.7049 100.192 163.099 125.263 165.109 125.71C167.119 126.157 161.995 109.76 161.995 109.76L147.702 105.735" fill="#C11F27"/>
</g>
<rect x="230.332" y="133.773" width="199.659" height="36.6725" transform="rotate(-180 230.332 133.773)" stroke="black" stroke-width="1.5" stroke-linecap="round" stroke-linejoin="round"/>
<path d="M74.1519 96.1791L177.183 119.733C177.183 119.733 179.268 98.5643 183.734 96.1791H74.1519Z" fill="white" stroke="black" stroke-width="1.5" stroke-linecap="round" stroke-linejoin="round"/>
<path d="M210.022 50.4149H59.5269C65.3875 62.2319 59.5269 96.1799 59.5269 96.1799H210.022C210.022 96.1799 204.161 62.2313 210.022 50.4149Z" fill="white"/>
<mask id="mask16_308_376" style="mask-type:luminance" maskUnits="userSpaceOnUse" x="59" y="50" width="152" height="47">
<path fill-rule="evenodd" clip-rule="evenodd" d="M210.022 50.4149H59.5269C65.3875 62.2319 59.5269 96.1799 59.5269 96.1799H210.022C210.022 96.1799 204.161 62.2313 210.022 50.4149Z" fill="white"/>
</mask>
<g mask="url(#mask16_308_376)">
<path d="M57.4462 68.1278L60.4852 68.2463L112.532 70.2773L54.4072 73.2968" fill="#D6DCF2"/>
<path d="M233.419 81.2468L230.38 81.1283L178.331 79.0973L236.458 76.0778" fill="#D6DCF2"/>
<path d="M234.938 59.3828L231.899 59.2643L68.4219 57.1763L237.977 54.2138" fill="#D6DCF2"/>
</g>
<path fill-rule="evenodd" clip-rule="evenodd" d="M210.022 50.4149H59.5269C65.3875 62.2319 59.5269 96.1799 59.5269 96.1799H210.022C210.022 96.1799 204.161 62.2313 210.022 50.4149Z" stroke="black" stroke-width="1.5" stroke-linecap="round" stroke-linejoin="round"/>
<rect x="53.6646" y="41.8207" width="162.22" height="8.59425" fill="#1AB995" stroke="black" stroke-width="1.5" stroke-linecap="round" stroke-linejoin="round"/>
<rect x="53.6646" y="88.549" width="162.22" height="8.59425" fill="#1AB995"/>
<mask id="mask17_308_376" style="mask-type:luminance" maskUnits="userSpaceOnUse" x="53" y="88" width="163" height="10">
<rect x="53.6646" y="88.549" width="162.22" height="8.59425" fill="white"/>
</mask>
<g mask="url(#mask17_308_376)">
<path d="M47.4258 96.1792C59.5271 96.1792 192.741 93.9065 193.634 97.1432C194.527 100.38 62.0169 105.15 62.0169 105.15L35.1396 96.1792" fill="#1AB995"/>
<path d="M47.4258 96.1792C59.5271 96.1792 192.741 93.9065 193.634 97.1432C194.527 100.38 62.0169 105.15 62.0169 105.15L35.1396 96.1792" stroke="black" stroke-width="1.5" stroke-linecap="round" stroke-linejoin="round"/>
</g>
<rect x="53.6646" y="88.549" width="162.22" height="8.59425" stroke="black" stroke-width="1.5" stroke-linecap="round" stroke-linejoin="round"/>
<path d="M152.162 76.4049L163.289 74.0958" stroke="black" stroke-width="1.5" stroke-linecap="round" stroke-linejoin="round"/>
<path d="M73.3843 117.9H83.7845" stroke="black" stroke-width="1.5" stroke-linecap="round" stroke-linejoin="round"/>
<path d="M193.08 242.413C155.336 196.171 244.967 169.579 230.793 109.464C230.793 109.464 240.857 109.906 243.245 114.211C243.245 114.211 253.279 104.963 260.923 112.457C260.923 112.457 265.541 110.065 267.452 111.022C267.452 111.022 272.867 116.762 267.452 129.678C262.037 142.594 290.067 161.091 259.489 230.613C256.941 235.397 268.408 242.413 265.223 246.878H197.701C195.21 246.876 193.167 244.903 193.08 242.413V242.413Z" fill="#FDD504"/>
<mask id="mask18_308_376" style="mask-type:luminance" maskUnits="userSpaceOnUse" x="183" y="109" width="92" height="138">
<path fill-rule="evenodd" clip-rule="evenodd" d="M193.08 242.413C155.336 196.171 244.967 169.579 230.793 109.464C230.793 109.464 240.857 109.906 243.245 114.211C243.245 114.211 253.279 104.963 260.923 112.457C260.923 112.457 265.541 110.065 267.452 111.022C267.452 111.022 272.867 116.762 267.452 129.678C262.037 142.594 290.067 161.091 259.489 230.613C256.941 235.397 268.408 242.413 265.223 246.878H197.701C195.21 246.876 193.167 244.903 193.08 242.413V242.413Z" fill="white"/>
</mask>
<g mask="url(#mask18_308_376)">
<path d="M202.747 182.378C251.369 170.861 243.357 230.055 243.357 230.055C243.357 230.055 267.046 232.088 255.986 258.757C247.019 280.379 232.846 263.221 230.298 263.221C227.75 263.221 188.255 252.059 187.618 250.465C186.981 248.87 183.291 187.321 183.291 187.321" fill="#FCB006"/>
<path d="M226.473 169.036C213.681 167.385 213.576 160.044 202.024 154.602C190.472 149.16 190.726 132.372 206.47 133.461C222.214 134.551 217.085 145.352 230.851 145.912C244.616 146.472 245.152 171.448 226.473 169.036Z" fill="#FCB006" stroke="black" stroke-width="1.5" stroke-linecap="round" stroke-linejoin="round"/>
<path d="M271.507 178.079C264.331 177.153 264.273 173.034 257.792 169.982C251.312 166.929 251.454 157.511 260.286 158.122C269.118 158.733 266.241 164.793 273.963 165.107C281.685 165.421 281.985 179.432 271.507 178.079Z" fill="#FCB006" stroke="black" stroke-width="1.5" stroke-linecap="round" stroke-linejoin="round"/>
<path d="M237.819 122.136C230.643 121.209 230.584 117.091 224.104 114.038C217.623 110.986 217.766 101.568 226.598 102.179C235.43 102.79 232.553 108.85 240.274 109.164C247.996 109.478 248.297 123.489 237.819 122.136Z" fill="#FCB006" stroke="black" stroke-width="1.5" stroke-linecap="round" stroke-linejoin="round"/>
<path d="M274.095 224.506C266.919 223.58 266.86 219.461 260.38 216.408C253.899 213.356 254.042 203.938 262.874 204.549C271.706 205.16 268.829 211.22 276.55 211.534C284.272 211.848 284.572 225.859 274.095 224.506Z" fill="#FCB006" stroke="black" stroke-width="1.5" stroke-linecap="round" stroke-linejoin="round"/>
</g>
<path fill-rule="evenodd" clip-rule="evenodd" d="M193.08 242.413C155.336 196.171 244.967 169.579 230.793 109.464C230.793 109.464 240.857 109.906 243.245 114.211C243.245 114.211 253.279 104.963 260.923 112.457C260.923 112.457 265.541 110.065 267.452 111.022C267.452 111.022 272.867 116.762 267.452 129.678C262.037 142.594 290.067 161.091 259.489 230.613C256.941 235.397 268.408 242.413 265.223 246.878H197.701C195.21 246.876 193.167 244.903 193.08 242.413V242.413Z" stroke="black" stroke-width="1.5" stroke-linecap="round" stroke-linejoin="round"/>
<path d="M155.291 145.49C201.262 162.824 150.541 234.188 190.689 239.266L199.609 246.878C131.509 236.003 194.338 175.564 153.754 148.428C153.055 147.951 152.824 147.026 153.217 146.276C153.609 145.526 154.5 145.189 155.291 145.49V145.49Z" fill="#FDD504"/>
<mask id="mask19_308_376" style="mask-type:luminance" maskUnits="userSpaceOnUse" x="153" y="145" width="47" height="102">
<path fill-rule="evenodd" clip-rule="evenodd" d="M155.291 145.49C201.262 162.824 150.541 234.188 190.689 239.266L199.609 246.878C131.509 236.003 194.338 175.564 153.754 148.428C153.055 147.951 152.824 147.026 153.217 146.276C153.609 145.526 154.5 145.189 155.291 145.49V145.49Z" fill="white"/>
</mask>
<g mask="url(#mask19_308_376)">
<path d="M169.329 195.902C156.537 194.25 156.432 186.909 144.88 181.467C133.328 176.025 133.582 159.237 149.326 160.327C165.07 161.416 159.941 172.218 173.707 172.778C187.472 173.338 188.007 198.313 169.329 195.902Z" fill="#FCB006" stroke="black" stroke-width="1.5" stroke-linecap="round" stroke-linejoin="round"/>
<path d="M172.833 254.263C160.041 252.611 159.936 245.27 148.384 239.828C136.832 234.386 137.086 217.598 152.83 218.687C168.574 219.777 163.445 230.579 177.21 231.139C190.976 231.699 191.512 256.674 172.833 254.263Z" fill="#FCB006" stroke="black" stroke-width="1.5" stroke-linecap="round" stroke-linejoin="round"/>
<path d="M150.537 154.983C137.745 153.331 137.64 145.99 126.088 140.548C114.536 135.106 114.79 118.318 130.534 119.408C146.278 120.497 141.149 131.299 154.915 131.859C168.68 132.419 169.215 157.394 150.537 154.983Z" fill="#FCB006" stroke="black" stroke-width="1.5" stroke-linecap="round" stroke-linejoin="round"/>
</g>
<path fill-rule="evenodd" clip-rule="evenodd" d="M155.291 145.49C201.262 162.824 150.541 234.188 190.689 239.266L199.609 246.878C131.509 236.003 194.338 175.564 153.754 148.428C153.055 147.951 152.824 147.026 153.217 146.276C153.609 145.526 154.5 145.189 155.291 145.49V145.49Z" stroke="black" stroke-width="1.5" stroke-linecap="round" stroke-linejoin="round"/>
<path d="M207.019 176.243C206.624 176.558 205.879 177.825 205.475 178.171C174.35 204.825 183.161 230.295 189.413 241.251C191.437 244.755 195.128 246.963 199.173 247.089L255.842 246.878C255.842 246.878 258.804 228.779 239.105 235.397C239.105 235.397 240.983 198.814 231.496 183.961" fill="#FDD504"/>
<mask id="mask20_308_376" style="mask-type:luminance" maskUnits="userSpaceOnUse" x="183" y="176" width="73" height="72">
<path fill-rule="evenodd" clip-rule="evenodd" d="M207.019 176.243C206.624 176.558 205.879 177.825 205.475 178.171C174.35 204.825 183.161 230.295 189.413 241.251C191.437 244.755 195.128 246.963 199.173 247.089L255.842 246.878C255.842 246.878 258.804 228.779 239.105 235.397C239.105 235.397 240.983 198.814 231.496 183.961" fill="white"/>
</mask>
<g mask="url(#mask20_308_376)">
<path d="M212.604 199.901C203.582 209.678 197.358 205.384 185.894 211.855C174.431 218.325 160.493 208.09 170.806 195.494C181.118 182.898 187.123 193.661 195.811 182.414C204.499 171.166 225.778 185.626 212.604 199.901Z" fill="#FCB006" stroke="black" stroke-width="1.5" stroke-linecap="round" stroke-linejoin="round"/>
<path d="M228.994 275.52C215.809 273.818 215.7 266.25 203.793 260.641C191.885 255.032 192.147 237.727 208.376 238.85C224.604 239.972 219.317 251.107 233.507 251.684C247.696 252.262 248.247 278.006 228.994 275.52Z" fill="#FCB006" stroke="black" stroke-width="1.5" stroke-linecap="round" stroke-linejoin="round"/>
</g>
<path d="M207.019 176.243C206.624 176.558 205.879 177.825 205.475 178.171C174.35 204.825 183.161 230.295 189.413 241.251C191.437 244.755 195.128 246.963 199.173 247.089L255.842 246.878C255.842 246.878 258.804 228.779 239.105 235.397C239.105 235.397 240.983 198.814 231.496 183.961" stroke="black" stroke-width="1.5" stroke-linecap="round" stroke-linejoin="round"/>
<path d="M258.818 117.339C254.13 123.868 249.686 122.305 247.991 121.331C247.782 121.216 247.629 121.022 247.565 120.793C247.501 120.564 247.532 120.318 247.651 120.112C249.641 116.205 254.255 114.426 258.353 115.985C258.62 116.072 258.832 116.28 258.923 116.546C259.015 116.812 258.976 117.106 258.818 117.339V117.339Z" fill="white"/>
<mask id="mask21_308_376" style="mask-type:luminance" maskUnits="userSpaceOnUse" x="247" y="115" width="12" height="8">
<path fill-rule="evenodd" clip-rule="evenodd" d="M258.818 117.339C254.13 123.868 249.686 122.305 247.991 121.331C247.782 121.216 247.629 121.022 247.565 120.793C247.501 120.564 247.532 120.318 247.651 120.112C249.641 116.205 254.255 114.426 258.353 115.985C258.62 116.072 258.832 116.28 258.923 116.546C259.015 116.812 258.976 117.106 258.818 117.339V117.339Z" fill="white"/>
</mask>
<g mask="url(#mask21_308_376)">
<ellipse cx="249.943" cy="120.296" rx="3.97905" ry="4.6047" transform="rotate(-0.2566 249.943 120.296)" fill="#485065" stroke="black" stroke-width="1.5" stroke-linecap="round" stroke-linejoin="round"/>
</g>
<path fill-rule="evenodd" clip-rule="evenodd" d="M258.818 117.339C254.13 123.868 249.686 122.305 247.991 121.331C247.782 121.216 247.629 121.022 247.565 120.793C247.501 120.564 247.532 120.318 247.651 120.112C249.641 116.205 254.255 114.426 258.353 115.985C258.62 116.072 258.832 116.28 258.923 116.546C259.015 116.812 258.976 117.106 258.818 117.339V117.339Z" stroke="black" stroke-width="1.5" stroke-linecap="round" stroke-linejoin="round"/>
<path d="M243.516 129.015L259.888 119.692" stroke="black" stroke-width="1.5" stroke-linecap="round" stroke-linejoin="round"/>
<path d="M247.65 133.41L260.463 120.18" stroke="black" stroke-width="1.5" stroke-linecap="round" stroke-linejoin="round"/>
<path d="M251.368 137.252L261.162 120.919" stroke="black" stroke-width="1.5" stroke-linecap="round" stroke-linejoin="round"/>
<path d="M258.748 185.933C256.707 187.138 254.283 187.518 251.971 186.995" stroke="black" stroke-width="1.5" stroke-linecap="round" stroke-linejoin="round"/>
<path d="M214.06 215.47C213.969 218.636 212.286 221.543 209.584 223.197" stroke="black" stroke-width="1.5" stroke-linecap="round" stroke-linejoin="round"/>
<path d="M240.91 136.777C241.479 138.131 242.346 139.34 243.447 140.312" stroke="black" stroke-width="1.5" stroke-linecap="round" stroke-linejoin="round"/>
</svg>
