<svg width="24" height="24" viewBox="0 0 24 24" fill="none" xmlns="http://www.w3.org/2000/svg">
<g clip-path="url(#clip0_333_274)">
<path d="M19 1.00006H5C3.67441 1.00165 2.40356 1.52894 1.46622 2.46628C0.528882 3.40362 0.00158786 4.67447 0 6.00006L0 18.0001C0.00158786 19.3257 0.528882 20.5965 1.46622 21.5338C2.40356 22.4712 3.67441 22.9985 5 23.0001H19C20.3256 22.9985 21.5964 22.4712 22.5338 21.5338C23.4711 20.5965 23.9984 19.3257 24 18.0001V6.00006C23.9984 4.67447 23.4711 3.40362 22.5338 2.46628C21.5964 1.52894 20.3256 1.00165 19 1.00006ZM5 3.00006H19C19.7956 3.00006 20.5587 3.31613 21.1213 3.87874C21.6839 4.44135 22 5.20441 22 6.00006V7.00006H2V6.00006C2 5.20441 2.31607 4.44135 2.87868 3.87874C3.44129 3.31613 4.20435 3.00006 5 3.00006ZM19 21.0001H5C4.20435 21.0001 3.44129 20.684 2.87868 20.1214C2.31607 19.5588 2 18.7957 2 18.0001V9.00006H22V18.0001C22 18.7957 21.6839 19.5588 21.1213 20.1214C20.5587 20.684 19.7956 21.0001 19 21.0001ZM19 13.0001C19 13.2653 18.8946 13.5196 18.7071 13.7072C18.5196 13.8947 18.2652 14.0001 18 14.0001H6C5.73478 14.0001 5.48043 13.8947 5.29289 13.7072C5.10536 13.5196 5 13.2653 5 13.0001C5 12.7348 5.10536 12.4805 5.29289 12.293C5.48043 12.1054 5.73478 12.0001 6 12.0001H18C18.2652 12.0001 18.5196 12.1054 18.7071 12.293C18.8946 12.4805 19 12.7348 19 13.0001ZM15 17.0001C15 17.2653 14.8946 17.5196 14.7071 17.7072C14.5196 17.8947 14.2652 18.0001 14 18.0001H6C5.73478 18.0001 5.48043 17.8947 5.29289 17.7072C5.10536 17.5196 5 17.2653 5 17.0001C5 16.7348 5.10536 16.4805 5.29289 16.293C5.48043 16.1054 5.73478 16.0001 6 16.0001H14C14.2652 16.0001 14.5196 16.1054 14.7071 16.293C14.8946 16.4805 15 16.7348 15 17.0001ZM3 5.00006C3 4.80228 3.05865 4.60894 3.16853 4.44449C3.27841 4.28004 3.43459 4.15187 3.61732 4.07618C3.80004 4.00049 4.00111 3.98069 4.19509 4.01928C4.38907 4.05786 4.56725 4.1531 4.70711 4.29295C4.84696 4.43281 4.9422 4.61099 4.98079 4.80497C5.01937 4.99895 4.99957 5.20002 4.92388 5.38274C4.84819 5.56547 4.72002 5.72165 4.55557 5.83153C4.39112 5.94141 4.19778 6.00006 4 6.00006C3.73478 6.00006 3.48043 5.8947 3.29289 5.70717C3.10536 5.51963 3 5.26528 3 5.00006ZM6 5.00006C6 4.80228 6.05865 4.60894 6.16853 4.44449C6.27841 4.28004 6.43459 4.15187 6.61732 4.07618C6.80004 4.00049 7.00111 3.98069 7.19509 4.01928C7.38907 4.05786 7.56725 4.1531 7.70711 4.29295C7.84696 4.43281 7.9422 4.61099 7.98079 4.80497C8.01937 4.99895 7.99957 5.20002 7.92388 5.38274C7.84819 5.56547 7.72002 5.72165 7.55557 5.83153C7.39112 5.94141 7.19778 6.00006 7 6.00006C6.73478 6.00006 6.48043 5.8947 6.29289 5.70717C6.10536 5.51963 6 5.26528 6 5.00006ZM9 5.00006C9 4.80228 9.05865 4.60894 9.16853 4.44449C9.27841 4.28004 9.43459 4.15187 9.61732 4.07618C9.80004 4.00049 10.0011 3.98069 10.1951 4.01928C10.3891 4.05786 10.5673 4.1531 10.7071 4.29295C10.847 4.43281 10.9422 4.61099 10.9808 4.80497C11.0194 4.99895 10.9996 5.20002 10.9239 5.38274C10.8482 5.56547 10.72 5.72165 10.5556 5.83153C10.3911 5.94141 10.1978 6.00006 10 6.00006C9.73478 6.00006 9.48043 5.8947 9.29289 5.70717C9.10536 5.51963 9 5.26528 9 5.00006Z" fill="#374957"/>
</g>
<defs>
<clipPath id="clip0_333_274">
<rect width="24" height="24" fill="white"/>
</clipPath>
</defs>
</svg>
